<svg xmlns="http://www.w3.org/2000/svg" width="9" height="9" fill="none"><path fill="#000" fill-rule="evenodd" d="M4.5 2.91a1.59 1.59 0 1 0 0 3.18 1.59 1.59 0 0 0 0-3.18ZM2.38 4.5a2.12 2.12 0 1 1 4.24 0 2.12 2.12 0 0 1-4.24 0ZM4.76 0v2.12h-.52V0h.52Zm0 6.88V9h-.52V6.88h.52ZM9 4.76H6.88v-.52H9v.52Zm-6.88 0H0v-.52h2.12v.52Zm5.31-2.82L6.37 3 6 2.63l1.06-1.06.37.37ZM3 6.37 1.94 7.43l-.37-.37L2.63 6l.37.37Zm4.06 1.06L6 6.37 6.37 6l1.06 1.06-.37.37ZM2.63 3 1.57 1.94l.37-.37L3 2.63 2.63 3Z" clip-rule="evenodd"/></svg>