<?xml version="1.0" standalone="no"?>
<!DOCTYPE svg PUBLIC "-//W3C//DTD SVG 20010904//EN"
 "http://www.w3.org/TR/2001/REC-SVG-20010904/DTD/svg10.dtd">
<svg version="1.0" xmlns="http://www.w3.org/2000/svg"
 width="536.000000pt" height="536.000000pt" viewBox="0 0 536.000000 536.000000"
 preserveAspectRatio="xMidYMid meet">
<metadata>
Created by potrace 1.11, written by Peter Selinger 2001-2013
</metadata>
<g transform="translate(0.000000,536.000000) scale(0.100000,-0.100000)"
fill="#000000" stroke="none">
<path d="M0 2680 l0 -2670 2680 0 2680 0 0 2670 0 2670 -2680 0 -2680 0 0
-2670z m2725 1059 c126 -39 271 -162 324 -274 55 -117 55 -118 59 -472 l3
-333 70 0 69 0 0 -90 0 -90 -160 0 -159 0 -3 408 c-3 402 -3 408 -27 467 -28
71 -111 159 -182 193 -225 109 -480 -24 -529 -276 l-13 -62 -89 0 -89 0 7 58
c17 138 75 254 175 347 86 80 190 131 304 149 54 8 174 -4 240 -25z m-98 -567
c99 -53 110 -188 22 -255 -51 -38 -99 -44 -154 -17 -63 30 -89 71 -89 137 0
59 19 93 74 131 40 27 101 29 147 4z m183 -1444 l1 -83 32 38 c25 29 39 37 66
37 l33 0 -36 -41 c-41 -45 -42 -42 21 -126 l24 -33 -33 0 c-28 0 -37 6 -58 40
-18 30 -27 36 -37 28 -7 -6 -13 -23 -13 -39 0 -24 -4 -29 -25 -29 l-25 0 0
145 0 145 25 0 c25 0 25 -1 25 -82z m245 42 c0 -18 -6 -26 -23 -28 -13 -2 -25
3 -28 12 -10 26 4 48 28 44 17 -2 23 -10 23 -28z m1220 0 c0 -18 -6 -26 -23
-28 -13 -2 -25 3 -28 12 -10 26 4 48 28 44 17 -2 23 -10 23 -28z m-3034 -9
c16 -16 29 -34 29 -40 0 -20 -55 -12 -68 10 -19 31 -66 23 -70 -13 -3 -23 2
-28 47 -43 52 -17 91 -54 91 -85 0 -78 -160 -94 -200 -21 -16 31 -12 41 18 41
19 0 30 -7 37 -22 14 -33 79 -33 83 0 3 19 -6 27 -61 51 -68 31 -84 52 -73 96
8 31 50 54 99 55 30 0 45 -7 68 -29z m1402 -100 c26 -70 47 -131 47 -135 0 -3
-13 -6 -29 -6 -25 0 -31 5 -36 30 -7 30 -8 31 -58 28 -45 -3 -52 -6 -57 -28
-4 -19 -13 -26 -38 -28 l-32 -3 18 48 c11 26 34 87 52 136 30 79 35 87 59 87
24 0 29 -9 74 -129z m-1168 37 c15 -14 28 -38 32 -60 l6 -38 -68 0 c-49 0 -66
-3 -63 -12 7 -21 56 -34 77 -21 14 9 21 9 30 0 16 -16 14 -23 -14 -35 -48 -22
-103 -11 -132 27 -16 21 -16 101 0 122 33 43 93 51 132 17z m223 10 c9 -9 12
-9 12 0 0 7 11 12 25 12 l25 0 0 -111 c0 -109 0 -111 -29 -140 -32 -32 -71
-38 -116 -17 -26 12 -29 17 -19 41 5 13 9 13 35 -1 32 -19 61 -9 67 21 3 14
-2 16 -27 11 -89 -18 -135 127 -58 181 26 18 68 20 85 3z m192 -62 c0 -80 7
-92 46 -82 23 6 24 10 24 81 0 73 1 75 25 75 l25 0 0 -100 0 -100 -25 0 c-14
0 -25 5 -25 10 0 7 -6 7 -19 0 -29 -15 -62 -12 -83 7 -15 13 -18 31 -18 100 0
82 0 83 25 83 24 0 25 -2 25 -74z m250 64 c0 -7 6 -7 19 0 29 15 62 12 83 -7
15 -13 18 -31 18 -100 0 -82 0 -83 -25 -83 -24 0 -25 2 -25 74 0 80 -7 92 -46
82 -23 -6 -24 -10 -24 -81 0 -73 -1 -75 -25 -75 l-25 0 0 100 0 100 25 0 c14
0 25 -5 25 -10z m920 -90 l0 -100 -30 0 -30 0 0 100 0 100 30 0 30 0 0 -100z
m120 90 c0 -7 6 -7 19 0 29 15 62 12 83 -7 15 -13 18 -31 18 -100 0 -82 0 -83
-25 -83 -24 0 -25 2 -25 74 0 80 -7 92 -46 82 -23 -6 -24 -10 -24 -81 0 -73
-1 -75 -25 -75 l-25 0 0 100 0 100 25 0 c14 0 25 -5 25 -10z m257 -52 l17 -63
19 63 c17 57 21 62 48 62 l29 0 -45 -127 c-25 -71 -53 -134 -62 -140 -27 -21
-63 -16 -63 7 0 11 6 20 14 20 7 0 19 7 26 15 10 12 5 35 -23 120 l-36 105 29
0 c27 0 30 -4 47 -62z m318 40 c15 -14 28 -38 32 -60 l6 -38 -68 0 c-49 0 -66
-3 -63 -12 7 -21 56 -34 77 -21 18 11 41 1 41 -17 0 -11 -49 -30 -76 -30 -59
0 -93 37 -93 100 0 25 5 52 12 61 33 43 93 51 132 17z m155 12 c0 -7 6 -7 19
0 28 15 67 12 81 -5 11 -13 15 -13 33 0 30 21 63 19 87 -5 17 -17 20 -33 20
-100 l0 -80 -30 0 -30 0 0 80 c0 70 -2 80 -18 80 -32 0 -42 -22 -42 -92 0 -66
-1 -68 -25 -68 -24 0 -25 2 -25 75 0 61 -3 77 -16 82 -35 13 -49 -11 -52 -86
-3 -68 -4 -71 -27 -71 -25 0 -25 0 -25 100 l0 100 25 0 c14 0 25 -5 25 -10z
m370 -90 l0 -100 -30 0 -30 0 0 100 0 100 30 0 30 0 0 -100z m-2797 -370 c-28
-11 -31 -49 -5 -51 16 -1 16 -2 0 -6 -15 -4 -18 -16 -18 -74 0 -39 -4 -69 -10
-69 -6 0 -10 30 -10 70 0 49 -4 70 -12 70 -8 0 -9 3 -3 8 6 4 16 19 22 35 9
18 20 27 35 26 l23 0 -22 -9z m2297 -95 c0 -63 -4 -105 -10 -105 -6 0 -10 42
-10 105 0 63 4 105 10 105 6 0 10 -42 10 -105z m-530 58 c0 -29 3 -34 12 -25
18 18 56 14 68 -7 13 -25 13 -131 0 -131 -6 0 -10 28 -10 65 0 52 -4 67 -16
72 -33 12 -49 -11 -52 -76 -5 -100 -22 -70 -22 39 0 60 4 100 10 100 6 0 10
-17 10 -37z m-2080 7 c20 -20 26 -40 12 -40 -4 0 -12 10 -17 23 -12 28 -56 34
-79 11 -24 -24 -16 -36 42 -63 28 -14 55 -33 58 -44 15 -49 -75 -78 -116 -37
-21 21 -26 40 -11 40 5 0 11 -9 14 -20 6 -23 53 -37 76 -23 9 6 16 21 16 34 0
19 -8 27 -39 37 -52 17 -66 29 -66 58 0 44 74 60 110 24z m400 0 c0 -12 7 -20
18 -21 16 -1 16 -2 0 -6 -15 -4 -18 -16 -18 -68 0 -52 3 -64 18 -68 13 -4 12
-5 -4 -6 -27 -1 -34 16 -34 85 0 44 -3 54 -17 55 -17 1 -17 2 0 6 9 2 17 13
17 24 0 10 5 19 10 19 6 0 10 -9 10 -20z m948 8 c18 -18 15 -35 -9 -57 l-22
-20 27 -31 26 -32 10 24 c10 21 10 20 6 -8 -3 -17 0 -36 7 -43 8 -8 8 -11 0
-11 -7 0 -14 4 -17 9 -4 5 -18 5 -35 -2 -44 -16 -81 3 -81 42 0 18 7 34 17 40
15 8 15 13 5 36 -22 48 29 90 66 53z m305 5 l-33 -4 0 -90 c0 -53 -4 -89 -10
-89 -6 0 -10 36 -10 89 l0 90 -32 4 c-18 2 1 4 42 4 41 0 60 -2 43 -4z m-1479
-49 c24 -23 30 -61 16 -94 -22 -53 -88 -52 -110 0 -22 52 8 110 55 110 13 0
31 -7 39 -16z m338 -46 l15 -63 18 63 c10 34 22 62 26 62 6 0 14 -23 43 -125
1 -5 8 19 16 53 7 35 17 65 22 69 6 3 7 -7 3 -28 -15 -68 -31 -114 -40 -114
-4 0 -15 24 -23 53 -8 28 -18 52 -21 52 -4 0 -13 -22 -20 -50 -7 -27 -17 -52
-22 -55 -4 -3 -16 20 -24 52 -9 32 -19 66 -21 76 -3 9 -1 17 4 17 5 0 15 -28
24 -62z m296 50 c12 -15 21 -138 10 -138 -5 0 -8 4 -8 9 0 5 -14 4 -30 -2 -22
-8 -35 -9 -48 -1 -43 27 -13 84 45 84 36 0 38 2 23 31 -13 23 -43 25 -60 4 -7
-8 -17 -15 -23 -15 -5 0 -2 9 8 20 20 22 67 27 83 8z m120 0 c-27 -9 -28 -13
-28 -74 0 -36 -4 -64 -10 -64 -6 0 -10 31 -10 73 l0 74 38 0 c36 1 36 1 10 -9z
m164 -5 c10 -9 18 -24 18 -35 0 -15 -8 -18 -50 -18 -43 0 -50 -3 -50 -19 0
-38 58 -69 75 -41 3 6 12 10 18 10 22 -1 -26 -30 -49 -30 -27 0 -64 44 -64 75
0 31 37 75 62 75 12 0 30 -7 40 -17z m720 0 c10 -9 18 -24 18 -35 0 -15 -8
-18 -50 -18 -43 0 -50 -3 -50 -19 0 -38 58 -69 75 -41 3 6 12 10 18 10 22 -1
-26 -30 -49 -30 -27 0 -64 44 -64 75 0 31 37 75 62 75 12 0 30 -7 40 -17z
m173 -3 c10 -11 15 -23 11 -27 -3 -4 -13 3 -22 15 -31 44 -74 18 -74 -45 0
-44 21 -67 53 -59 15 3 27 13 27 21 0 8 5 15 10 15 15 0 12 -11 -7 -32 -43
-48 -116 8 -99 77 14 54 67 72 101 35z m265 8 c0 -9 3 -9 12 0 18 18 56 14 68
-7 13 -25 13 -131 0 -131 -6 0 -10 28 -10 65 0 52 -4 67 -16 72 -33 12 -49
-11 -52 -76 -4 -87 -22 -76 -22 14 0 43 4 75 10 75 6 0 10 -5 10 -12z m254 -4
c24 -23 30 -61 16 -94 -22 -53 -88 -52 -110 0 -22 52 8 110 55 110 13 0 31 -7
39 -16z m260 0 c24 -23 30 -61 16 -94 -22 -53 -88 -52 -110 0 -22 52 8 110 55
110 13 0 31 -7 39 -16z m196 -68 c0 -60 -4 -84 -17 -98 -20 -22 -52 -23 -79
-3 -23 18 -11 20 16 3 24 -15 53 -1 58 27 3 13 -1 15 -17 10 -52 -16 -93 42
-71 101 14 37 26 43 72 41 l38 -1 0 -80z m96 19 l21 -59 20 59 c10 32 24 60
30 62 12 4 -47 -158 -66 -181 -7 -9 -21 -16 -30 -15 -11 0 -10 3 6 9 34 14 36
42 4 119 -16 40 -24 70 -18 68 7 -2 21 -30 33 -62z"/>
<path d="M2552 1671 c-16 -52 -16 -51 19 -51 32 0 33 2 8 68 -11 30 -14 28
-27 -17z"/>
<path d="M1392 1668 c-21 -21 -13 -28 28 -28 38 0 40 2 30 20 -12 22 -40 26
-58 8z"/>
<path d="M1642 1668 c-17 -17 -15 -83 3 -98 8 -6 22 -10 32 -8 15 3 18 13 18
58 0 47 -3 55 -20 58 -11 1 -26 -3 -33 -10z"/>
<path d="M3672 1668 c-21 -21 -13 -28 28 -28 38 0 40 2 30 20 -12 22 -40 26
-58 8z"/>
<path d="M2465 1220 c-4 -6 -4 -22 -1 -36 6 -21 9 -23 27 -14 13 7 19 19 17
33 -3 24 -32 35 -43 17z"/>
<path d="M2448 1115 c-14 -31 3 -55 39 -55 34 0 40 26 13 56 -29 30 -38 30
-52 -1z"/>
<path d="M1270 1171 c-25 -47 -5 -111 35 -111 27 0 45 25 45 65 0 40 -18 65
-45 65 -14 0 -29 -8 -35 -19z"/>
<path d="M1912 1121 c-19 -12 -11 -55 11 -59 23 -5 57 25 57 50 0 13 -7 18
-27 18 -16 0 -34 -4 -41 -9z"/>
<path d="M2190 1171 c-15 -29 -13 -31 30 -31 41 0 52 14 28 38 -18 18 -46 14
-58 -7z"/>
<path d="M2910 1171 c-15 -29 -13 -31 30 -31 41 0 52 14 28 38 -18 18 -46 14
-58 -7z"/>
<path d="M3600 1171 c-25 -47 -5 -111 35 -111 27 0 45 25 45 65 0 40 -18 65
-45 65 -14 0 -29 -8 -35 -19z"/>
<path d="M3860 1171 c-25 -47 -5 -111 35 -111 27 0 45 25 45 65 0 40 -18 65
-45 65 -14 0 -29 -8 -35 -19z"/>
<path d="M4040 1171 c-14 -27 -13 -74 3 -96 10 -13 21 -16 40 -11 25 6 27 11
27 54 0 26 -5 53 -12 60 -18 18 -46 14 -58 -7z"/>
</g>
</svg>
